<?xml version="1.0" encoding="iso-8859-1"?>
<!-- Generator: Adobe Illustrator 19.0.0, SVG Export Plug-In . SVG Version: 6.00 Build 0)  -->
<svg version="1.1" id="Layer_1" xmlns="http://www.w3.org/2000/svg" xmlns:xlink="http://www.w3.org/1999/xlink" x="0px" y="0px"
	 viewBox="0 0 512 512" style="enable-background:new 0 0 512 512;" xml:space="preserve">
<g>
	<g>
		<path d="M473.043,381.306v-19.567c0-27.618-22.469-50.087-50.087-50.087h-33.391c-27.618,0-50.087,22.469-50.087,50.087v16.696
			h-33.391V222.447c39.45-18.79,66.783-59.05,66.783-105.578C372.87,52.428,320.442,0,256,0S139.13,52.428,139.13,116.87
			c0,46.527,27.333,86.787,66.783,105.578v155.987h-33.391v-16.696c0-27.618-22.469-50.087-50.087-50.087H89.044
			c-27.618,0-50.087,22.469-50.087,50.087v19.567c-19.433,6.892-33.391,25.45-33.391,47.215v33.391
			C5.565,489.531,28.034,512,55.652,512h400.696c27.618,0,50.087-22.469,50.087-50.087v-33.391
			C506.435,406.756,492.476,388.198,473.043,381.306z M372.87,361.739c0-9.206,7.49-16.696,16.696-16.696h33.391
			c9.206,0,16.696,7.49,16.696,16.696v16.696H372.87V361.739z M172.522,116.87c0-46.03,37.448-83.478,83.478-83.478
			s83.478,37.448,83.478,83.478S302.03,200.348,256,200.348S172.522,162.899,172.522,116.87z M272.696,232.541v145.893h-33.391
			V232.541C250.414,234.138,261.573,234.14,272.696,232.541z M72.348,361.739c0-9.206,7.49-16.696,16.696-16.696h33.391
			c9.206,0,16.696,7.49,16.696,16.696v16.696H72.348V361.739z M473.043,461.913c0,9.206-7.49,16.696-16.696,16.696H55.652
			c-9.206,0-16.696-7.49-16.696-16.696v-33.391c0-9.206,7.49-16.696,16.696-16.696c9.258,0,397.562,0,400.696,0
			c9.206,0,16.696,7.49,16.696,16.696V461.913z"/>
	</g>
</g>
<g>
	<g>
		<path d="M256,66.783c-9.22,0-16.696,7.475-16.696,16.696s7.475,16.696,16.696,16.696c9.206,0,16.696,7.49,16.696,16.696
			c0,9.22,7.475,16.696,16.696,16.696s16.696-7.475,16.696-16.696C306.087,89.252,283.618,66.783,256,66.783z"/>
	</g>
</g>
<g>
</g>
<g>
</g>
<g>
</g>
<g>
</g>
<g>
</g>
<g>
</g>
<g>
</g>
<g>
</g>
<g>
</g>
<g>
</g>
<g>
</g>
<g>
</g>
<g>
</g>
<g>
</g>
<g>
</g>
</svg>
